HIERARCHY
ROOT Hips
{
	OFFSET 0.000000 0.000000 0.000000
	CHANNELS 6 Xposition Yposition Zposition Xrotation Yrotation Zrotation
	JOINT LeftUpLeg_virtual
	{
		OFFSET 0.000000 0.000000 0.000000
		CHANNELS 3 Xrotation Yrotation Zrotation
		JOINT LeftUpLeg
		{
			OFFSET 13.026900 -6.336304 -1.092800
			CHANNELS 3 Xrotation Yrotation Zrotation
			JOINT LeftLeg
			{
				OFFSET 0.524474 -46.096886 9.782700
				CHANNELS 3 Xrotation Yrotation Zrotation
				JOINT LeftFoot
				{
					OFFSET -0.524474 -53.427422 -12.948200
					CHANNELS 3 Xrotation Yrotation Zrotation
					JOINT LeftToeBase
					{
						OFFSET 0.192200 -14.009700 16.364100
						CHANNELS 3 Xrotation Yrotation Zrotation
						JOINT LeftToe_End
						{
							OFFSET -1.784700 -0.561700 9.474800
							CHANNELS 3 Xrotation Yrotation Zrotation
							End Site
							{
								OFFSET 0 0 0
							}
						}
					}
				}
			}
		}
	}
	JOINT RightUpLeg_virtual
	{
		OFFSET 0.000000 0.000000 0.000000
		CHANNELS 3 Xrotation Yrotation Zrotation
		JOINT RightUpLeg
		{
			OFFSET -12.883000 -6.336304 -1.092800
			CHANNELS 3 Xrotation Yrotation Zrotation
			JOINT RightLeg
			{
				OFFSET -0.524587 -46.096825 9.782800
				CHANNELS 3 Xrotation Yrotation Zrotation
				JOINT RightFoot
				{
					OFFSET 0.524587 -53.427383 -12.948300
					CHANNELS 3 Xrotation Yrotation Zrotation
					JOINT RightToeBase
					{
						OFFSET -0.192200 -14.009700 16.364100
						CHANNELS 3 Xrotation Yrotation Zrotation
						JOINT RightToe_End
						{
							OFFSET 1.784700 -0.561700 9.474800
							CHANNELS 3 Xrotation Yrotation Zrotation
							End Site
							{
								OFFSET 0 0 0
							}
						}
					}
				}
			}
		}
	}
	JOINT Spine_virtual
	{
		OFFSET 0.000000 0.000000 0.000000
		CHANNELS 3 Xrotation Yrotation Zrotation
		JOINT Spine
		{
			OFFSET 0.072000 7.257294 -0.789700
			CHANNELS 3 Xrotation Yrotation Zrotation
			JOINT Spine1
			{
				OFFSET 0.000000 12.508769 -0.658067
				CHANNELS 3 Xrotation Yrotation Zrotation
				JOINT Spine1_split
				{
					OFFSET 0.000000 12.508769 -0.658067
					CHANNELS 3 Xrotation Yrotation Zrotation
					JOINT Spine2
					{
						OFFSET 0.000000 12.508769 -0.658067
						CHANNELS 3 Xrotation Yrotation Zrotation
						JOINT Neck_virtual
						{
							OFFSET 0.000000 0.000000 0.000000
							CHANNELS 3 Xrotation Yrotation Zrotation
							JOINT Neck
							{
								OFFSET 0.000000 14.033295 7.520400
								CHANNELS 3 Xrotation Yrotation Zrotation
								JOINT Head
								{
									OFFSET 0.000000 8.198502 5.703100
									CHANNELS 3 Xrotation Yrotation Zrotation
									JOINT HeadTop_End
									{
										OFFSET 0.000000 17.760803 13.332701
										CHANNELS 3 Xrotation Yrotation Zrotation
										End Site
										{
											OFFSET 0 0 0
										}
									}
								}
							}
						}
						JOINT LeftShoulder_virtual
						{
							OFFSET 0.000000 0.000000 0.000000
							CHANNELS 3 Xrotation Yrotation Zrotation
							JOINT LeftShoulder
							{
								OFFSET 6.292450 5.785301 -0.669000
								CHANNELS 3 Xrotation Yrotation Zrotation
								JOINT LeftShoulder_split
								{
									OFFSET 6.292450 5.785301 -0.669000
									CHANNELS 3 Xrotation Yrotation Zrotation
									JOINT LeftArm
									{
										OFFSET 13.907140 -6.093903 1.965100
										CHANNELS 3 Xrotation Yrotation Zrotation
										JOINT LeftForeArm
										{
											OFFSET 34.140198 0.000000 0.000000
											CHANNELS 3 Xrotation Yrotation Zrotation
											JOINT LeftHand
											{
												OFFSET 40.960209 0.000000 0.000000
												CHANNELS 3 Xrotation Yrotation Zrotation
												End Site
												{
													OFFSET 0 0 0
												}
											}
										}
									}
								}
							}
						}
						JOINT RightShoulder_virtual
						{
							OFFSET 0.000000 0.000000 0.000000
							CHANNELS 3 Xrotation Yrotation Zrotation
							JOINT RightShoulder
							{
								OFFSET -6.292450 5.785301 -0.669000
								CHANNELS 3 Xrotation Yrotation Zrotation
								JOINT RightShoulder_split
								{
									OFFSET -6.292450 5.785301 -0.669000
									CHANNELS 3 Xrotation Yrotation Zrotation
									JOINT RightArm
									{
										OFFSET -13.907140 -6.093903 1.965100
										CHANNELS 3 Xrotation Yrotation Zrotation
										JOINT RightForeArm
										{
											OFFSET -34.140198 0.000000 0.000000
											CHANNELS 3 Xrotation Yrotation Zrotation
											JOINT RightHand
											{
												OFFSET -40.960209 0.000000 0.000000
												CHANNELS 3 Xrotation Yrotation Zrotation
												End Site
												{
													OFFSET 0 0 0
												}
											}
										}
									}
								}
							}
						}
					}
				}
			}
		}
	}
}
MOTION
Frames: 4
Frame Time: 0.03333333
-1.180458 113.056557 -0.252022 0.000000 0.000000 0.000000 -1.883885 -0.300646 -0.442889 -10.599066 4.154591 9.585435 20.847156 4.952895 2.252844 -8.996854 2.191466 -12.347344 1.247045 0.287020 -1.127289 0.000000 0.000000 0.000000 -1.650361 0.304170 -0.418867 -11.625586 1.674967 -3.335996 22.174568 -1.224556 -2.518257 -6.955837 -0.081342 6.143224 1.418641 -0.068904 0.255695 0.000000 0.000000 0.000000 -1.818405 -1.619869 -0.709385 0.849520 -0.785897 0.361737 -1.121527 -0.261099 0.583556 1.034827 0.161056 0.010518 0.000000 0.000000 0.000000 -1.551671 -0.000795 0.579588 -0.524339 0.624468 -1.109688 4.325324 -1.891299 1.985801 0.000000 0.000000 0.000000 -1.631110 0.163261 0.281445 1.409156 -10.819420 -10.396728 -2.761123 0.344018 -1.749204 20.727860 -21.577193 -65.609752 -1.097611 -19.795662 0.891263 0.000000 0.000000 0.000000 -1.133486 0.162653 0.540773 1.618946 5.413873 10.796810 -0.502433 3.086411 -1.965329 5.995821 23.579529 66.564271 0.593919 16.158085 0.654806 0.000000 0.000000 0.000000 
-0.921376 113.229828 -0.281578 0.000000 0.000000 0.000000 -1.854848 -0.318583 -0.440200 -10.507134 3.923946 9.571949 20.763907 5.106111 2.240697 -8.842451 2.335972 -12.144231 1.126492 0.314013 -1.143931 0.000000 0.000000 0.000000 -1.619648 0.216274 -0.431714 -11.313657 1.576042 -3.380338 21.868901 -1.262309 -2.585747 -6.737971 -0.130624 5.760394 1.108112 -0.105730 0.349974 0.000000 0.000000 0.000000 -1.696196 -1.716022 -0.780012 0.711260 -0.752034 0.416205 -1.082037 -0.260180 0.586087 1.115741 0.309614 0.088781 0.000000 0.000000 0.000000 -1.563142 -0.014296 0.592392 -0.568020 0.678567 -1.082260 4.257736 -1.947323 1.908521 0.000000 0.000000 0.000000 -1.623879 0.174524 0.284911 1.411623 -10.880144 -10.507424 -2.740328 0.368675 -1.747106 20.696513 -21.678143 -65.661477 -1.091617 -19.837950 0.781839 0.000000 0.000000 0.000000 -1.110469 0.165667 0.535911 1.634973 5.575029 10.850688 -0.420561 3.216567 -2.001460 6.148842 23.701590 66.381318 0.650019 16.061601 0.661322 0.000000 0.000000 0.000000 
-0.695421 113.393738 -0.310570 0.000000 0.000000 0.000000 -1.928921 -0.440656 -0.480292 -10.482887 3.849298 9.567894 20.691312 5.412014 2.262743 -8.623863 2.376825 -11.827384 1.010976 0.358246 -1.119215 0.000000 0.000000 0.000000 -1.588994 0.142156 -0.516947 -10.948522 1.513370 -3.366297 21.625999 -1.289507 -2.702815 -7.039201 -0.141283 5.173859 0.960504 -0.102585 0.355479 0.000000 0.000000 0.000000 -1.544438 -1.858392 -0.890961 0.649801 -0.681750 0.537919 -1.003841 -0.250509 0.565417 1.165789 0.331845 0.085033 0.000000 0.000000 0.000000 -1.540601 -0.027111 0.578734 -0.586887 0.787736 -1.112399 4.009077 -2.002278 1.915060 0.000000 0.000000 0.000000 -1.580641 0.180742 0.261509 1.408894 -10.985840 -10.623547 -2.764806 0.600801 -1.713504 20.580683 -21.688222 -65.722696 -1.054164 -20.006198 0.668513 0.000000 0.000000 0.000000 -1.057751 0.159297 0.500119 1.682927 5.740510 10.878407 -0.278888 3.349243 -2.043153 6.425551 24.008006 65.963624 0.729070 16.161551 0.642950 0.000000 0.000000 0.000000 
-0.502357 113.432114 -0.378113 0.000000 0.000000 0.000000 -2.029209 -0.683924 -0.553828 -10.525540 3.976403 9.528417 20.673222 5.855756 2.318770 -8.474755 2.340996 -11.471637 0.927648 0.413666 -1.050390 0.000000 0.000000 0.000000 -1.509031 0.055767 -0.616736 -10.781836 1.456798 -3.349468 21.615467 -1.309280 -2.787282 -7.567292 -0.134180 4.567157 0.870509 -0.080920 0.274162 0.000000 0.000000 0.000000 -1.381037 -2.059399 -0.992934 0.672496 -0.598856 0.685142 -0.883555 -0.224942 0.527611 1.112708 0.275646 -0.019531 0.000000 0.000000 0.000000 -1.473917 -0.030045 0.546641 -0.595617 0.920359 -1.179127 3.570781 -2.059609 2.025814 0.000000 0.000000 0.000000 -1.503317 0.190809 0.221158 1.396925 -11.113783 -10.724505 -2.871320 0.887827 -1.656127 20.440350 -21.691545 -65.662235 -1.004512 -20.256512 0.538581 0.000000 0.000000 0.000000 -0.981273 0.150525 0.439955 1.756256 5.904558 10.865046 -0.071262 3.457108 -2.063304 6.708714 24.461011 65.390442 0.809453 16.415089 0.611499 0.000000 0.000000 0.000000 
